<svg xmlns="http://www.w3.org/2000/svg" xmlns:xlink="http://www.w3.org/1999/xlink" version="1.1" x="0px" y="0px" viewBox="0 0 100 125" style="enable-background:new 0 0 100 100;" xml:space="preserve"><g><path d="M81.4,22.5H18.7c-0.8,0-1.5,0.7-1.5,1.5s0.7,1.5,1.5,1.5h62.7c0.8,0,1.5-0.7,1.5-1.5S82.2,22.5,81.4,22.5z"/><path d="M18.7,51.5h32.7c0.8,0,1.5-0.7,1.5-1.5s-0.7-1.5-1.5-1.5H18.7c-0.8,0-1.5,0.7-1.5,1.5S17.9,51.5,18.7,51.5z"/><path d="M71.4,74.5H18.7c-0.8,0-1.5,0.7-1.5,1.5s0.7,1.5,1.5,1.5h52.7c0.8,0,1.5-0.7,1.5-1.5S72.2,74.5,71.4,74.5z"/></g><text x="0" y="115" fill="#000000" font-size="5px" font-weight="bold" font-family="'Helvetica Neue', Helvetica, Arial-Unicode, Arial, Sans-serif">Created by Viktor Vorobyev</text><text x="0" y="120" fill="#000000" font-size="5px" font-weight="bold" font-family="'Helvetica Neue', Helvetica, Arial-Unicode, Arial, Sans-serif">from the Noun Project</text></svg>